<?xml version="1.0" encoding="utf-8"?>
<!-- Generator: Adobe Illustrator 16.0.3, SVG Export Plug-In . SVG Version: 6.00 Build 0)  -->
<!DOCTYPE svg PUBLIC "-//W3C//DTD SVG 1.1//EN" "http://www.w3.org/Graphics/SVG/1.1/DTD/svg11.dtd">
<svg version="1.1" id="Layer_1" xmlns="http://www.w3.org/2000/svg" xmlns:xlink="http://www.w3.org/1999/xlink" x="0px" y="0px"
	 width="121.28px" height="30px" viewBox="6.86 -5 121.28 30" enable-background="new 6.86 -5 121.28 30" xml:space="preserve">
<g>
	<path d="M11.81,6.071c0.692,0,1.336,0.13,1.933,0.39c0.597,0.26,1.123,0.616,1.579,1.068c0.458,0.452,0.815,0.979,1.073,1.58
		c0.258,0.601,0.386,1.249,0.386,1.946c0,0.683-0.129,1.329-0.386,1.936c-0.258,0.61-0.615,1.144-1.073,1.602
		c-0.456,0.46-0.982,0.819-1.579,1.078c-0.596,0.26-1.241,0.392-1.933,0.392H8.826v4.004H6.86v-9.011
		c0-0.697,0.129-1.346,0.387-1.946c0.258-0.602,0.612-1.128,1.061-1.58s0.975-0.809,1.58-1.068S11.132,6.071,11.81,6.071z
		 M12.981,13.848c0.369-0.155,0.689-0.371,0.961-0.645c0.272-0.275,0.487-0.598,0.641-0.969c0.155-0.371,0.232-0.764,0.232-1.179
		c0-0.416-0.077-0.806-0.232-1.17c-0.154-0.362-0.369-0.682-0.641-0.957c-0.273-0.273-0.593-0.489-0.961-0.644
		c-0.368-0.157-0.759-0.234-1.17-0.234c-0.413,0-0.799,0.077-1.161,0.234c-0.361,0.154-0.677,0.37-0.95,0.644
		C9.426,9.204,9.213,9.523,9.059,9.886c-0.155,0.364-0.233,0.753-0.233,1.17v3.025h2.984C12.222,14.082,12.613,14.004,12.981,13.848
		z"/>
	<path d="M22.394,6.026c0.693,0,1.338,0.13,1.935,0.39c0.596,0.26,1.123,0.615,1.58,1.068c0.457,0.452,0.814,0.979,1.072,1.58
		c0.258,0.6,0.386,1.249,0.386,1.946v5.006H25.4v-5.006c0-0.415-0.077-0.805-0.232-1.169c-0.154-0.363-0.368-0.683-0.641-0.957
		c-0.272-0.274-0.593-0.489-0.96-0.646c-0.368-0.155-0.759-0.233-1.171-0.233s-0.799,0.077-1.16,0.233
		c-0.362,0.155-0.678,0.371-0.951,0.646c-0.272,0.274-0.486,0.594-0.641,0.957c-0.154,0.364-0.231,0.753-0.231,1.169v5.006h-1.967
		V2.021h1.967v5.03c0.412-0.327,0.872-0.579,1.381-0.758C21.3,6.115,21.834,6.026,22.394,6.026z"/>
	<path d="M27.941,11.056c0-0.697,0.128-1.346,0.386-1.946c0.258-0.602,0.612-1.128,1.061-1.58c0.449-0.452,0.977-0.809,1.58-1.068
		c0.604-0.26,1.244-0.39,1.922-0.39c0.693,0,1.337,0.13,1.933,0.39c0.597,0.26,1.123,0.616,1.581,1.068
		c0.457,0.452,0.813,0.979,1.071,1.58c0.258,0.601,0.387,1.249,0.387,1.946c0,0.683-0.129,1.329-0.387,1.936
		c-0.259,0.61-0.615,1.144-1.071,1.602c-0.458,0.46-0.983,0.819-1.581,1.078c-0.596,0.26-1.24,0.392-1.933,0.392
		c-0.678,0-1.318-0.132-1.922-0.392c-0.604-0.259-1.131-0.618-1.58-1.078c-0.449-0.458-0.803-0.991-1.061-1.602
		C28.07,12.384,27.941,11.738,27.941,11.056z M29.885,11.056c0,0.415,0.077,0.808,0.231,1.18c0.155,0.371,0.369,0.693,0.641,0.969
		c0.273,0.273,0.593,0.489,0.961,0.645c0.369,0.156,0.758,0.234,1.171,0.234c0.413,0,0.803-0.078,1.172-0.234
		c0.368-0.155,0.688-0.371,0.961-0.645c0.272-0.275,0.486-0.598,0.64-0.969c0.155-0.371,0.232-0.765,0.232-1.18
		s-0.077-0.805-0.232-1.169c-0.154-0.363-0.368-0.682-0.64-0.956c-0.273-0.274-0.593-0.489-0.961-0.646
		c-0.369-0.156-0.759-0.233-1.172-0.233c-0.412,0-0.803,0.077-1.171,0.233c-0.368,0.156-0.688,0.371-0.961,0.646
		c-0.273,0.274-0.486,0.593-0.641,0.956C29.962,10.251,29.885,10.64,29.885,11.056z"/>
	<path d="M44.47,14.036v1.98h-0.973c-0.677,0-1.319-0.13-1.922-0.389c-0.604-0.26-1.134-0.619-1.591-1.079
		c-0.457-0.46-0.815-0.994-1.072-1.604c-0.259-0.607-0.387-1.253-0.387-1.935V2.021h1.967v6.008h3.978v1.98h-3.977v1.002
		c0,0.415,0.078,0.81,0.232,1.179c0.154,0.37,0.367,0.693,0.64,0.969c0.273,0.275,0.593,0.487,0.961,0.645
		c0.369,0.155,0.758,0.233,1.172,0.233L44.47,14.036L44.47,14.036z"/>
	<path d="M45.177,11.056c0-0.697,0.129-1.346,0.387-1.946c0.258-0.602,0.611-1.128,1.061-1.58c0.449-0.452,0.975-0.809,1.58-1.068
		c0.605-0.26,1.245-0.39,1.923-0.39c0.693,0,1.337,0.13,1.933,0.39c0.597,0.26,1.123,0.616,1.581,1.068
		c0.456,0.452,0.813,0.979,1.071,1.58c0.258,0.601,0.386,1.249,0.386,1.946c0,0.683-0.129,1.329-0.386,1.936
		c-0.258,0.61-0.615,1.144-1.071,1.602c-0.457,0.46-0.984,0.819-1.581,1.078c-0.596,0.26-1.241,0.392-1.933,0.392
		c-0.678,0-1.318-0.132-1.923-0.392c-0.604-0.259-1.13-0.618-1.58-1.078c-0.449-0.458-0.803-0.991-1.061-1.602
		C45.305,12.384,45.177,11.738,45.177,11.056z M47.122,11.056c0,0.415,0.077,0.808,0.232,1.18c0.155,0.371,0.368,0.693,0.641,0.969
		c0.272,0.273,0.593,0.489,0.961,0.645c0.368,0.156,0.758,0.234,1.171,0.234c0.412,0,0.803-0.078,1.172-0.234
		c0.368-0.155,0.688-0.371,0.961-0.645c0.272-0.275,0.487-0.598,0.641-0.969c0.155-0.371,0.232-0.765,0.232-1.18
		s-0.076-0.805-0.232-1.169c-0.154-0.363-0.369-0.682-0.641-0.956c-0.273-0.274-0.593-0.489-0.961-0.646
		c-0.369-0.156-0.759-0.233-1.172-0.233c-0.412,0-0.803,0.077-1.171,0.233c-0.369,0.156-0.689,0.371-0.961,0.646
		c-0.273,0.274-0.486,0.593-0.641,0.956C47.199,10.251,47.122,10.64,47.122,11.056z"/>
	<path fill="#FF9933" d="M66.088,16.038h-9.889c0.112-0.983,0.456-1.907,1.031-2.773c0.575-0.867,1.652-1.889,3.233-3.069
		c0.966-0.722,1.584-1.27,1.853-1.646c0.27-0.375,0.404-0.73,0.404-1.067c0-0.364-0.133-0.675-0.4-0.934
		c-0.267-0.258-0.603-0.387-1.008-0.387c-0.421,0-0.766,0.133-1.031,0.399c-0.267,0.266-0.447,0.735-0.539,1.409l-3.302-0.268
		c0.13-0.935,0.368-1.664,0.712-2.189c0.345-0.525,0.833-0.926,1.461-1.207c0.627-0.28,1.498-0.419,2.609-0.419
		c1.16,0,2.063,0.133,2.708,0.399c0.644,0.266,1.151,0.675,1.521,1.226c0.37,0.552,0.555,1.169,0.555,1.853
		c0,0.729-0.212,1.423-0.635,2.087c-0.424,0.662-1.194,1.389-2.311,2.184c-0.664,0.462-1.107,0.785-1.332,0.971
		c-0.224,0.185-0.487,0.426-0.789,0.724h5.147v2.708H66.088z"/>
	<path d="M70.64,4.235c-0.368,0.156-0.688,0.371-0.961,0.645s-0.485,0.594-0.64,0.957c-0.156,0.363-0.232,0.752-0.232,1.167v1.023
		h3.979v1.98h-3.979v6.009h-1.968V7.005c0-0.697,0.129-1.346,0.387-1.947c0.259-0.6,0.615-1.126,1.072-1.579
		c0.458-0.452,0.988-0.808,1.591-1.068c0.604-0.26,1.244-0.389,1.922-0.389h0.974v1.981h-0.974
		C71.396,4.001,71.008,4.08,70.64,4.235z"/>
	<path d="M78.463,6.026c0.692,0,1.336,0.13,1.933,0.39s1.119,0.615,1.568,1.068c0.449,0.452,0.804,0.979,1.062,1.58
		c0.257,0.6,0.388,1.249,0.388,1.946v5.006h-4.95c-0.678,0-1.318-0.13-1.924-0.389c-0.604-0.26-1.134-0.619-1.591-1.079
		c-0.456-0.46-0.813-0.994-1.07-1.604c-0.258-0.607-0.388-1.253-0.388-1.935c0-0.697,0.13-1.347,0.388-1.946
		c0.257-0.602,0.614-1.128,1.07-1.58c0.457-0.453,0.987-0.809,1.591-1.068C77.145,6.156,77.785,6.026,78.463,6.026z M81.446,14.036
		v-3.025c0-0.415-0.078-0.805-0.233-1.169c-0.154-0.363-0.367-0.683-0.641-0.957s-0.588-0.489-0.951-0.646
		c-0.359-0.155-0.747-0.233-1.159-0.233c-0.413,0-0.804,0.077-1.172,0.233c-0.367,0.155-0.689,0.371-0.961,0.646
		c-0.273,0.274-0.485,0.594-0.641,0.957c-0.154,0.364-0.231,0.753-0.231,1.169c0,0.415,0.077,0.81,0.231,1.18
		c0.155,0.37,0.367,0.692,0.641,0.967c0.273,0.276,0.594,0.489,0.961,0.646c0.368,0.155,0.759,0.233,1.172,0.233H81.446z"/>
	<path d="M92.915,6.026v1.98h-5.989c-0.28,0-0.516,0.096-0.707,0.289s-0.286,0.431-0.286,0.712c0,0.282,0.095,0.522,0.286,0.724
		s0.428,0.3,0.707,0.3h3.978c0.414,0,0.801,0.078,1.161,0.233s0.677,0.368,0.95,0.635c0.271,0.267,0.486,0.582,0.641,0.945
		c0.155,0.363,0.232,0.753,0.232,1.169c0,0.415-0.077,0.804-0.232,1.167c-0.154,0.364-0.369,0.684-0.641,0.957
		c-0.273,0.274-0.589,0.49-0.95,0.646c-0.36,0.156-0.747,0.233-1.161,0.233h-5.967v-1.98h5.967c0.296,0,0.539-0.095,0.73-0.288
		s0.287-0.438,0.287-0.734c0-0.281-0.096-0.519-0.287-0.711c-0.191-0.193-0.435-0.29-0.73-0.29h-3.978
		c-0.411,0-0.799-0.077-1.16-0.234c-0.361-0.154-0.674-0.369-0.938-0.644c-0.266-0.275-0.476-0.594-0.63-0.958
		c-0.156-0.362-0.232-0.752-0.232-1.167c0-0.416,0.076-0.806,0.232-1.169c0.154-0.363,0.364-0.679,0.63-0.945
		c0.265-0.267,0.577-0.479,0.938-0.634c0.361-0.155,0.749-0.233,1.16-0.233h5.989V6.026z"/>
	<path d="M99.478,6.026c0.692,0,1.337,0.13,1.933,0.39c0.597,0.26,1.123,0.615,1.581,1.068c0.456,0.452,0.813,0.979,1.07,1.58
		c0.258,0.6,0.388,1.249,0.388,1.946v5.006h-1.966v-5.006c0-0.415-0.077-0.805-0.232-1.169c-0.154-0.363-0.368-0.683-0.643-0.957
		c-0.271-0.274-0.593-0.489-0.96-0.646c-0.369-0.155-0.759-0.233-1.171-0.233c-0.413,0-0.8,0.077-1.16,0.233
		c-0.361,0.156-0.677,0.371-0.951,0.646c-0.273,0.274-0.485,0.594-0.64,0.957c-0.155,0.364-0.233,0.753-0.233,1.169v5.006h-1.966
		V2.021h1.966v5.03c0.412-0.327,0.873-0.579,1.381-0.758C98.382,6.115,98.917,6.026,99.478,6.026z"/>
	<path d="M106.99,6.026v9.99h-1.944v-9.99H106.99z"/>
	<path d="M107.63,11.056c0-0.697,0.13-1.346,0.388-1.946c0.258-0.602,0.611-1.128,1.061-1.58c0.45-0.452,0.977-0.809,1.582-1.068
		c0.604-0.26,1.244-0.39,1.923-0.39c0.692,0,1.335,0.13,1.932,0.39s1.125,0.616,1.581,1.068s0.813,0.979,1.072,1.58
		c0.257,0.601,0.386,1.249,0.386,1.946c0,0.683-0.129,1.329-0.386,1.936c-0.259,0.61-0.618,1.144-1.072,1.602
		c-0.456,0.46-0.984,0.819-1.581,1.078c-0.597,0.26-1.24,0.392-1.932,0.392c-0.679,0-1.319-0.132-1.923-0.392
		c-0.605-0.259-1.132-0.618-1.582-1.078c-0.449-0.458-0.803-0.991-1.061-1.602C107.76,12.384,107.63,11.738,107.63,11.056z
		 M109.576,11.056c0,0.415,0.077,0.808,0.231,1.18c0.156,0.371,0.368,0.693,0.641,0.969c0.273,0.273,0.595,0.489,0.961,0.645
		c0.368,0.156,0.76,0.234,1.172,0.234s0.803-0.078,1.171-0.234c0.369-0.155,0.689-0.371,0.963-0.645
		c0.271-0.275,0.486-0.598,0.64-0.969c0.155-0.371,0.232-0.765,0.232-1.18s-0.077-0.805-0.232-1.169
		c-0.153-0.363-0.368-0.682-0.64-0.956c-0.273-0.274-0.594-0.489-0.963-0.646c-0.368-0.156-0.759-0.233-1.171-0.233
		s-0.804,0.077-1.172,0.233c-0.366,0.156-0.688,0.371-0.961,0.646s-0.484,0.593-0.641,0.956
		C109.653,10.251,109.576,10.64,109.576,11.056z"/>
	<path d="M118.603,9.086c0.258-0.601,0.612-1.127,1.062-1.58c0.448-0.452,0.977-0.808,1.58-1.068
		c0.604-0.26,1.245-0.389,1.922-0.389c0.693,0,1.338,0.13,1.934,0.389c0.598,0.261,1.124,0.616,1.582,1.068
		c0.455,0.453,0.813,0.979,1.07,1.58s0.388,1.25,0.388,1.946v5.006h-1.968v-5.006c0-0.415-0.077-0.805-0.232-1.168
		c-0.154-0.363-0.366-0.683-0.639-0.957c-0.275-0.274-0.595-0.489-0.962-0.645c-0.368-0.156-0.759-0.233-1.173-0.233
		c-0.41,0-0.799,0.077-1.158,0.233c-0.362,0.155-0.679,0.37-0.951,0.645c-0.273,0.274-0.486,0.594-0.642,0.957
		c-0.154,0.363-0.232,0.753-0.232,1.168v5.006h-1.966v-5.006C118.217,10.336,118.345,9.687,118.603,9.086z"/>
</g>
</svg>
